PathFileType	4	(X/Y/Z)	s08c0001.trc
DataRate	CameraRate	NumFrames	NumMarkers	Units	OrigDataRate	OrigDataStartFrame	OrigNumFrames
200	200	4	49	mm	200	1500	2000
Frame#	Time	racr			lacr			c7			jug			rlel			rdr			llel			ldr			s2			lic			ric			lasi			rasi			rpsi			lpsi			rgt			lgt			rth1			rth2			rth3			rth4			rlfc			rmfc			rsh1			rsh2			rsh3			rsh4			rlmal			rmmal			rcal			rtoe			rmt5			rmt1			lth1			lth2			lth4			lth3			llfc			lmfc			llmal			lmmal			lcal			lmt1			lmt5			lsh1			lsh2			lsh3			lsh4			ltoe			
		X1	Y1	Z1	X2	Y2	Z2	X3	Y3	Z3	X4	Y4	Z4	X5	Y5	Z5	X6	Y6	Z6	X7	Y7	Z7	X8	Y8	Z8	X9	Y9	Z9	X10	Y10	Z10	X11	Y11	Z11	X12	Y12	Z12	X13	Y13	Z13	X14	Y14	Z14	X15	Y15	Z15	X16	Y16	Z16	X17	Y17	Z17	X18	Y18	Z18	X19	Y19	Z19	X20	Y20	Z20	X21	Y21	Z21	X22	Y22	Z22	X23	Y23	Z23	X24	Y24	Z24	X25	Y25	Z25	X26	Y26	Z26	X27	Y27	Z27	X28	Y28	Z28	X29	Y29	Z29	X30	Y30	Z30	X31	Y31	Z31	X32	Y32	Z32	X33	Y33	Z33	X34	Y34	Z34	X35	Y35	Z35	X36	Y36	Z36	X37	Y37	Z37	X38	Y38	Z38	X39	Y39	Z39	X40	Y40	Z40	X41	Y41	Z41	X42	Y42	Z42	X43	Y43	Z43	X44	Y44	Z44	X45	Y45	Z45	X46	Y46	Z46	X47	Y47	Z47	X48	Y48	Z48	X49	Y49	Z49	
1500	7.5000	425.667633	1529.237549	595.644897	413.583679	1543.859131	198.533096	367.101105	1584.100586	395.791901	496.745056	1487.215454	394.422058	384.471802	1235.852295	681.221924	459.985321	958.519043	790.828430	391.373444	1243.177124	99.185829	450.288544	971.822205	-3.745653	331.249847	1028.448242	404.974274	474.416870	1093.577393	237.905228	484.039520	1099.943481	556.215454	526.668884	1036.105713	269.656799	540.126099	1033.357422	521.436218	353.318909	1067.966431	452.505219	351.792725	1075.714722	353.168182	427.087036	955.413086	577.781494	431.162506	943.556091	212.648773	439.365875	804.072388	593.502441	460.673309	718.137695	589.009338	497.575348	718.712402	580.661865	437.043915	634.905762	578.940735	440.042725	511.691528	559.687073	424.159241	499.984619	456.154419	399.802338	387.323151	594.176086	422.613129	301.027649	576.311096	398.848816	218.315750	569.525696	449.175018	305.865570	546.205078	392.528015	97.752472	555.721313	407.352081	122.509201	469.969604	321.421417	65.468208	507.920807	612.038818	78.982376	510.554840	535.410522	47.869640	577.115112	538.708557	47.704105	464.042786	447.292664	814.985596	190.111389	466.356018	729.720764	193.699921	501.666962	729.751770	204.486465	439.156097	645.330078	196.896713	432.650696	518.726196	217.217377	438.114197	496.120422	315.868134	381.965515	107.168533	221.772629	412.185455	126.375687	302.059265	325.169373	74.322502	264.489838	541.961731	47.173447	295.871460	528.746277	43.031574	181.176605	410.585144	394.286621	190.936111	423.738556	310.635803	208.022766	394.684235	227.225449	207.790329	445.123779	313.021027	240.378174	610.567444	81.557632	243.136475	
1501	7.5050	425.717987	1529.221680	595.635925	413.620239	1543.846436	198.543167	367.138611	1584.105347	395.787964	496.795776	1487.223999	394.425018	384.505157	1235.859863	681.219543	460.028015	958.511902	790.821777	391.378998	1243.175049	99.202568	450.305756	971.834229	-3.752917	331.282806	1028.448730	404.986481	474.431946	1093.562622	237.908325	484.098816	1099.946899	556.179810	526.675476	1036.096436	269.641571	540.145203	1033.351074	521.442932	353.333679	1067.970093	452.506592	351.819733	1075.719482	353.165283	427.088379	955.408997	577.779297	431.169739	943.581665	212.656494	439.377228	804.078430	593.495728	460.673798	718.138794	589.011536	497.565430	718.719727	580.667908	437.030243	634.900085	578.946106	440.049866	511.690338	559.657043	424.152191	499.980377	456.160461	399.842926	387.365692	594.163635	422.602386	301.030029	576.316956	398.846466	218.311340	569.542419	449.172821	305.860016	546.203613	392.541962	97.748222	555.711060	407.391998	122.522079	469.956299	321.416412	65.466362	507.931915	612.055664	78.952057	510.553375	535.404175	47.854862	577.123901	538.672852	47.713776	464.038300	447.278961	814.987976	190.102219	466.356110	729.720154	193.701538	501.693817	729.754639	204.495773	439.155701	645.338623	196.889313	432.665161	518.708679	217.223160	438.086304	496.129364	315.839447	381.983704	107.160492	221.778809	412.167419	126.387886	302.076447	325.173859	74.304703	264.503113	541.965759	47.168690	295.870239	528.743286	43.036919	181.173264	410.586639	394.275696	190.929886	423.742004	310.634613	208.012161	394.683807	227.224030	207.788742	445.066711	312.976257	240.333984	610.556335	81.549034	243.123260	
1502	7.5100	425.759155	1529.230103	595.631775	413.629639	1543.848022	198.565567	367.165802	1584.106689	395.794983	496.827820	1487.223999	394.420898	384.546234	1235.857422	681.210327	460.074646	958.514160	790.809265	391.404053	1243.175537	99.198578	450.319336	971.822937	-3.747366	331.288818	1028.465820	404.990540	474.453827	1093.578125	237.902390	484.109680	1099.933594	556.197449	526.696533	1036.092163	269.657288	540.181763	1033.353882	521.442200	353.348389	1067.969116	452.498474	351.820679	1075.734985	353.185516	427.121124	955.422546	577.783752	431.181793	943.565308	212.663666	439.382172	804.070374	593.496216	460.677704	718.135071	589.024353	497.579620	718.729065	580.685913	437.045319	634.909485	578.936584	440.036987	511.694336	559.671448	424.157593	499.986145	456.152283	399.842926	387.338654	594.118469	422.597473	301.033325	576.325073	398.843048	218.315262	569.540710	449.189026	305.845520	546.219177	392.546356	97.744759	555.705139	407.372070	122.524406	469.975616	321.434814	65.445679	507.949768	612.049744	78.961571	510.550171	535.405518	47.862827	577.117188	538.692627	47.718597	464.037872	447.302460	814.986267	190.119400	466.366486	729.723877	193.670166	501.697540	729.738159	204.473206	439.174225	645.345276	196.891434	432.662537	518.731689	217.223450	438.098389	496.115204	315.854645	381.984650	107.167976	221.772827	412.174500	126.404221	302.071716	325.165436	74.308945	264.508026	541.978271	47.163784	295.856232	528.720825	43.030167	181.161697	410.584198	394.289917	190.925186	423.766846	310.662872	208.040161	394.686249	227.213577	207.793106	445.095612	312.982910	240.340759	610.554993	81.554131	243.125076	
1503	7.5150	425.805206	1529.246704	595.621216	413.661285	1543.847046	198.550980	367.219360	1584.117920	395.789368	496.869965	1487.196533	394.418549	384.591583	1235.874878	681.219971	460.133636	958.513245	790.804688	391.427643	1243.171875	99.198318	450.339630	971.824036	-3.746740	331.318878	1028.477905	404.988678	477.414307	1093.693237	238.934341	484.138855	1099.933716	556.195862	526.704590	1036.099976	269.643646	540.196533	1033.336060	521.437866	353.359100	1067.976196	452.513977	351.846832	1075.732178	353.187012	427.137512	955.428589	577.799072	431.194550	943.567566	212.660065	439.386017	804.079651	593.508240	460.683777	718.136292	589.021240	497.583496	718.696716	580.683777	437.042175	634.898987	578.946777	440.047516	511.699646	559.678284	424.155273	499.985748	456.169434	399.852295	387.343018	594.123230	422.606598	301.044189	576.321655	398.867554	218.309769	569.550842	449.174347	305.832153	546.204773	392.532959	97.748482	555.715881	407.406128	122.527725	469.981934	321.416595	65.466827	507.931732	612.066223	78.962288	510.550781	535.414246	47.843533	577.143005	538.708557	47.704082	464.042816	447.303467	814.988525	190.089722	466.369537	729.722351	193.699356	501.698273	729.728821	204.481552	439.178375	645.318359	196.888855	432.701477	518.705811	217.214752	438.091187	496.110687	315.865143	381.965942	107.167511	221.775604	412.194855	126.359138	302.057098	325.163483	74.332863	264.501160	541.967407	47.178181	295.859680	528.723816	43.024822	181.165039	410.596558	394.280396	190.939285	423.772400	310.611481	208.056061	394.691986	227.217941	207.792664	445.099823	313.001068	240.345871	610.547852	81.555298	243.133972	
